<svg width="115" height="115" viewBox="0 0 115 115" fill="none" xmlns="http://www.w3.org/2000/svg">
<path fill-rule="evenodd" clip-rule="evenodd" d="M105.821 88.6792C102.312 94.1066 97.9127 98.9051 92.8307 102.868L56.5907 67L21.1624 102.065C16.3102 98.1038 12.1169 93.3658 8.77237 88.0408L56.9741 40.3334L105.821 88.6792ZM112.585 74.0409C114.156 68.8024 115 63.2498 115 57.5C115 25.7437 89.2564 0 57.5 0C25.7436 0 0 25.7437 0 57.5C0 62.9551 0.759659 68.2329 2.17897 73.2332L56.9741 19L112.585 74.0409ZM56.5907 91L77.3023 111.499C71.1287 113.764 64.4587 115 57.5 115C50.045 115 42.9214 113.581 36.3844 110.999L56.5907 91Z" fill="#E11D48"/>
</svg>
